<?xml version="1.0" standalone="no"?>
<!DOCTYPE svg PUBLIC "-//W3C//DTD SVG 20010904//EN"
 "http://www.w3.org/TR/2001/REC-SVG-20010904/DTD/svg10.dtd">
<svg version="1.0" xmlns="http://www.w3.org/2000/svg"
 width="1565.000000pt" height="451.000000pt" viewBox="0 0 1565.000000 451.000000"
 preserveAspectRatio="xMidYMid meet">
<metadata>
Created by potrace 1.15, written by Peter Selinger 2001-2017
</metadata>
<g transform="translate(0.000000,451.000000) scale(0.100000,-0.100000)"
fill="#000000" stroke="none">
<path d="M5035 4336 c-66 -21 -98 -41 -151 -98 -72 -76 -97 -146 -92 -258 6
-131 33 -179 193 -345 45 -47 74 -68 118 -84 69 -25 170 -28 243 -6 103 31
209 144 234 251 18 75 9 190 -20 249 -31 64 -182 231 -234 258 -90 47 -204 60
-291 33z"/>
<path d="M8353 4336 c-59 -19 -103 -48 -155 -104 -63 -67 -83 -125 -83 -242 0
-112 15 -153 91 -244 154 -186 214 -221 365 -214 104 5 177 37 242 107 67 72
91 130 95 236 6 128 -14 176 -125 300 -92 104 -138 138 -212 161 -57 17 -162
17 -218 0z"/>
<path d="M787 4319 c-190 -27 -337 -241 -299 -434 17 -81 779 -2501 804 -2550
11 -22 40 -62 64 -90 24 -27 62 -71 85 -97 24 -28 66 -60 98 -75 50 -25 67
-28 156 -28 87 0 107 3 155 26 76 36 137 100 175 184 18 39 155 418 305 842
151 425 277 770 281 765 4 -4 125 -340 269 -747 144 -407 273 -758 285 -781
59 -101 180 -230 251 -264 42 -21 64 -24 154 -25 97 0 110 2 163 29 66 34 116
84 150 153 22 43 162 480 642 2004 85 273 160 524 166 558 12 75 -8 182 -46
247 -43 74 -173 211 -229 244 -175 100 -431 23 -511 -153 -13 -29 -115 -377
-227 -774 -112 -397 -206 -719 -209 -715 -4 4 -115 315 -249 692 -133 377
-251 701 -263 720 -21 35 -76 97 -153 175 -75 76 -195 111 -321 94 -122 -17
-224 -91 -275 -199 -20 -42 -415 -1146 -517 -1442 l-16 -47 -184 657 c-101
361 -193 680 -203 709 -11 30 -41 76 -71 110 -29 32 -61 70 -72 84 -77 98
-216 148 -358 128z"/>
<path d="M6097 4319 c-96 -15 -186 -82 -235 -174 l-27 -50 0 -1355 0 -1355 22
-45 c24 -48 105 -152 164 -210 85 -84 227 -113 341 -70 75 28 150 96 185 168
l28 57 5 355 5 354 407 -436 c224 -239 422 -445 441 -457 57 -35 146 -61 208
-61 146 0 259 81 304 219 24 73 18 199 -13 263 -33 66 -178 221 -500 530 -156
149 -279 274 -275 278 4 4 166 119 358 255 193 136 367 263 388 283 57 55 80
127 75 237 -3 67 -10 101 -26 132 -35 68 -175 216 -234 249 -48 26 -62 29
-148 29 -78 0 -103 -4 -140 -23 -25 -12 -225 -167 -445 -343 l-400 -322 -5
574 c-3 316 -10 585 -15 599 -21 60 -61 113 -176 230 -71 72 -184 107 -292 89z"/>
<path d="M10754 4155 c64 -160 40 -301 -69 -410 -110 -110 -290 -135 -422 -58
-58 34 -54 13 10 -51 81 -81 131 -101 252 -101 87 0 107 3 155 26 66 32 133
97 166 160 73 145 36 348 -81 439 -17 14 -18 13 -11 -5z"/>
<path d="M13114 3886 l-34 -34 0 -222 0 -222 43 -43 c23 -23 49 -56 59 -73 32
-59 56 -67 231 -71 215 -4 260 2 306 44 l36 33 0 220 c0 242 -3 257 -61 288
-19 10 -34 26 -34 36 0 9 -14 30 -31 47 l-31 31 -225 0 -225 0 -34 -34z"/>
<path d="M14072 3601 c-35 -36 -42 -65 -42 -188 0 -109 15 -156 60 -181 16 -9
30 -25 30 -34 0 -10 16 -33 35 -52 41 -42 85 -50 215 -44 70 3 96 9 118 25 45
33 52 58 52 193 0 137 -13 178 -65 202 -14 6 -25 18 -25 26 0 8 -15 29 -34 48
l-34 34 -140 0 -140 0 -30 -29z"/>
<path d="M5050 3511 c-77 -24 -166 -96 -200 -162 -39 -75 -41 -133 -38 -1054
l3 -890 27 -58 c29 -61 78 -124 164 -212 70 -72 141 -99 244 -93 91 5 153 33
217 97 55 55 79 101 93 182 7 44 10 339 8 954 l-3 890 -32 65 c-21 45 -59 93
-120 156 -73 76 -98 95 -146 113 -59 22 -166 27 -217 12z"/>
<path d="M8370 3511 c-96 -31 -186 -116 -217 -204 -17 -49 -18 -108 -18 -977
l0 -925 27 -58 c29 -61 78 -124 164 -212 159 -163 433 -109 532 103 l27 57 3
899 c2 588 -1 917 -8 954 -13 73 -41 125 -102 192 -28 30 -65 70 -82 89 -50
55 -127 85 -221 88 -44 1 -91 -1 -105 -6z"/>
<path d="M12352 3286 l3 -138 37 -34 c21 -19 42 -34 48 -34 12 0 14 316 2 324
-5 3 -28 8 -51 12 l-43 7 4 -137z"/>
<path d="M10735 3334 c4 -11 15 -50 23 -88 12 -60 13 -218 4 -1200 -9 -985
-12 -1140 -26 -1201 -80 -342 -246 -547 -510 -631 -147 -46 -308 -43 -409 8
-48 24 -56 18 -28 -20 35 -50 87 -89 148 -112 52 -19 73 -21 193 -18 115 3
146 8 208 30 104 38 175 83 257 163 115 112 191 260 237 463 22 97 22 101 25
1256 4 1279 8 1200 -59 1300 -32 49 -78 86 -63 50z"/>
<path d="M14718 3030 c-37 -29 -51 -71 -46 -142 4 -56 8 -64 42 -94 21 -18 45
-47 54 -65 28 -54 65 -74 135 -73 103 1 142 42 142 149 0 74 -15 107 -61 131
-19 10 -34 26 -34 36 0 9 -14 30 -31 47 -28 29 -35 31 -103 31 -58 0 -79 -4
-98 -20z"/>
<path d="M11911 2964 c-25 -21 -31 -33 -31 -65 0 -22 6 -54 14 -73 20 -48 100
-106 82 -59 -4 9 -2 31 5 50 15 48 57 67 127 59 58 -7 82 -17 249 -109 123
-67 164 -80 268 -81 65 -1 88 3 125 22 91 48 148 126 165 230 l7 42 -56 0
c-54 0 -57 -1 -79 -38 -35 -54 -97 -106 -150 -127 -36 -13 -66 -17 -131 -13
-89 5 -119 17 -366 148 -64 34 -84 40 -137 40 -52 0 -66 -4 -92 -26z"/>
<path d="M13718 2764 c-51 -27 -58 -57 -58 -239 l0 -166 43 -42 c23 -23 48
-54 54 -70 7 -15 27 -36 45 -47 29 -18 51 -20 191 -20 243 0 247 4 247 255 0
152 -2 170 -20 195 -11 16 -29 32 -40 35 -11 4 -27 22 -35 41 -27 64 -59 74
-240 74 -122 -1 -166 -4 -187 -16z"/>
<path d="M11397 2345 c75 -95 173 -169 299 -226 35 -16 145 -54 246 -84 101
-31 221 -71 268 -90 46 -19 86 -32 89 -30 2 3 -1 17 -8 32 -9 20 10 6 64 -47
91 -90 184 -205 244 -303 46 -75 110 -219 111 -249 0 -22 -122 -98 -221 -137
-132 -53 -230 -72 -395 -78 -131 -5 -166 -3 -260 17 -60 12 -143 33 -184 46
-108 35 -264 115 -344 176 -38 29 -79 60 -90 68 l-21 14 20 -24 c149 -187 375
-318 668 -387 218 -51 489 -31 694 52 227 92 397 262 462 463 58 180 49 436
-22 577 -19 40 -123 175 -133 175 -3 0 6 -20 21 -45 55 -95 75 -184 76 -336 0
-136 -22 -244 -71 -344 -44 -89 -117 -185 -124 -164 -3 8 -10 34 -17 59 -50
198 -234 386 -506 516 -140 67 -194 87 -403 150 -247 74 -292 96 -474 224 -15
11 -12 3 11 -25z"/>
<path d="M9815 1765 c40 -102 46 -133 43 -221 -3 -78 -8 -100 -36 -156 -39
-80 -120 -159 -199 -196 -45 -20 -78 -27 -146 -30 -115 -6 -202 19 -270 76
-31 27 -28 6 7 -39 123 -162 364 -208 541 -103 49 28 124 106 154 158 68 119
66 293 -3 416 -27 49 -105 130 -91 95z"/>
</g>
</svg>
